<?xml version="1.0" encoding="utf-8"?>
<!-- Generator: Adobe Illustrator 25.1.0, SVG Export Plug-In . SVG Version: 6.00 Build 0)  -->
<svg version="1.1" id="Capa_1" xmlns="http://www.w3.org/2000/svg" xmlns:xlink="http://www.w3.org/1999/xlink" x="0px" y="0px"
	 viewBox="0 0 512 512" style="enable-background:new 0 0 512 512;" xml:space="preserve">
<style type="text/css">
	.st0{fill:#2E5090;}
	.st1{fill:#1B4487;}
	.st2{fill:#FFFFFF;}
	.st3{fill:#F2F2F2;}
	.st4{fill:#2F5F8E;}
</style>
<path class="st0" d="M407,0H105C47.1,0,0,47.1,0,105v302c0,57.9,47.1,105,105,105h302c57.9,0,105-47.1,105-105V105
	C512,47.1,464.9,0,407,0z"/>
<path class="st1" d="M407,0H256v512h151c57.9,0,105-47.1,105-105V105C512,47.1,464.9,0,407,0z"/>
<polygon class="st2" points="256,368.1 120.1,466.9 172,307.1 36.1,208.3 204.1,208.3 256,48.5 307.9,208.3 475.9,208.3 340,307.1 
	391.9,466.9 "/>
<polygon class="st3" points="475.9,208.3 307.9,208.3 256,48.5 256,368.1 391.9,466.9 340,307.1 "/>
<polygon class="st0" points="216,246 216,306 286,306 286,276 286,246 "/>
<g>
	<polygon class="st4" points="301.3,256 286,276 301.3,296 309,296 309,256 	"/>
	<polygon class="st4" points="256,246 256,306 286,306 286,276 286,246 	"/>
</g>
</svg>
